<?xml version="1.0" standalone="no"?>
<!DOCTYPE svg PUBLIC "-//W3C//DTD SVG 20010904//EN"
 "http://www.w3.org/TR/2001/REC-SVG-20010904/DTD/svg10.dtd">
<svg version="1.0" xmlns="http://www.w3.org/2000/svg"
 width="512.000000pt" height="512.000000pt" viewBox="0 0 512.000000 512.000000"
 preserveAspectRatio="xMidYMid meet">
<metadata>
Created by potrace 1.11, written by Peter Selinger 2001-2013
</metadata>
<g transform="translate(0.000000,512.000000) scale(0.100000,-0.100000)"
fill="#000000" stroke="none">
<path d="M2755 4469 c-302 -39 -583 -147 -824 -318 -306 -218 -424 -414 -425
-706 0 -71 12 -254 18 -264 7 -10 19 -192 18 -268 -1 -79 -14 -162 -36 -233
-53 -169 -223 -365 -566 -651 -100 -84 -121 -103 -201 -184 -137 -138 -205
-243 -254 -389 -34 -102 -40 -146 -39 -291 3 -370 220 -643 571 -720 54 -11
123 -14 328 -10 143 2 278 6 300 9 35 4 88 8 235 21 19 2 54 6 78 9 23 3 61 8
85 11 23 3 53 8 67 10 14 3 40 7 58 10 77 12 100 16 152 26 30 6 69 13 85 16
17 2 110 25 208 49 500 125 933 311 1287 553 388 264 714 674 844 1063 44 129
56 199 57 318 1 201 -38 364 -136 567 -98 205 -238 394 -445 603 -121 123
-144 144 -280 260 -35 30 -83 71 -105 91 -256 226 -484 359 -700 410 -60 14
-296 19 -380 8z"/>
</g>
</svg>
